<svg width="13" height="15" viewBox="0 0 13 15" fill="none" xmlns="http://www.w3.org/2000/svg">
<path d="M10.8235 2.9648H9.803C9.6936 2.15378 9.29725 1.4088 8.68579 0.864894C8.07433 0.320985 7.28824 0.014148 6.47 0C5.65176 0.014148 4.86567 0.320985 4.25421 0.864894C3.64275 1.4088 3.2464 2.15378 3.137 2.9648H2.117C1.55579 2.96517 1.01766 3.18822 0.620747 3.58498C0.223836 3.98174 0.000582706 4.51979 0 5.081V12.7965C0.000502884 13.3576 0.223605 13.8957 0.620346 14.2925C1.01709 14.6893 1.55506 14.9126 2.1162 14.9132H10.8232C11.3844 14.9127 11.9226 14.6896 12.3194 14.2927C12.7163 13.8959 12.9395 13.3577 12.94 12.7965V5.081C12.9394 4.51988 12.7162 3.98191 12.3194 3.58516C11.9226 3.18841 11.3846 2.9653 10.8235 2.9648ZM6.47 1.0996C6.99741 1.11106 7.50512 1.30217 7.90918 1.64132C8.31325 1.98047 8.58948 2.44736 8.6922 2.9648H4.2478C4.35052 2.44736 4.62675 1.98047 5.03082 1.64132C5.43488 1.30217 5.94259 1.11106 6.47 1.0996ZM11.84 12.7965C11.8397 13.0661 11.7325 13.3245 11.542 13.5152C11.3514 13.7059 11.093 13.8132 10.8234 13.8136H2.1165C1.84694 13.8131 1.58856 13.7058 1.39801 13.5152C1.20746 13.3245 1.10029 13.0661 1.1 12.7965V5.081C1.10032 4.81148 1.20753 4.55309 1.39811 4.36251C1.58869 4.17193 1.84708 4.06472 2.1166 4.0644H10.8236C11.0931 4.06477 11.3514 4.172 11.542 4.36258C11.7325 4.55315 11.8397 4.81151 11.84 5.081V12.7965Z" fill="white" fill-opacity="0.8"/>
</svg>
