<svg width="13" height="16" viewBox="0 0 13 16" fill="none" xmlns="http://www.w3.org/2000/svg">
<path d="M12.5589 5.4318C12.038 5.75071 11.6066 6.19655 11.3049 6.72761C11.0032 7.25867 10.8413 7.85759 10.8341 8.4683C10.8362 9.15565 11.0398 9.8273 11.4198 10.4001C11.7998 10.9728 12.3395 11.4215 12.972 11.6906C12.7226 12.4952 12.3536 13.2577 11.8772 13.9524C11.1956 14.9336 10.4829 15.9147 9.3985 15.9147C8.3141 15.9147 8.0352 15.2847 6.7855 15.2847C5.5668 15.2847 5.133 15.9354 4.1415 15.9354C3.15 15.9354 2.4581 15.0265 1.6628 13.9111C0.612269 12.3485 0.0349098 10.516 0 8.6335C0 5.5351 2.014 3.893 3.9969 3.893C5.0504 3.893 5.9283 4.5849 6.5893 4.5849C7.2193 4.5849 8.2005 3.8516 9.3985 3.8516C10.0145 3.83571 10.6249 3.97152 11.176 4.24708C11.7271 4.52264 12.202 4.92949 12.5589 5.4318ZM8.8305 2.54C9.3586 1.91876 9.65755 1.13513 9.6774 0.32C9.67829 0.212542 9.6679 0.105288 9.6464 0C8.73926 0.0886136 7.9004 0.520975 7.3019 1.2084C6.76871 1.80488 6.4585 2.56759 6.424 3.3669C6.4244 3.46411 6.43479 3.56102 6.455 3.6561C6.52652 3.66962 6.59912 3.67655 6.6719 3.6768C7.08997 3.64353 7.49692 3.5256 7.868 3.33018C8.23908 3.13475 8.56655 2.86591 8.8305 2.54Z" fill="white" fill-opacity="0.8"/>
</svg>
